<?xml version="1.0" encoding="utf-8"?>
<!-- Generator: Adobe Illustrator 21.0.0, SVG Export Plug-In . SVG Version: 6.00 Build 0)  -->
<svg version="1.1" id="Capa_1" xmlns="http://www.w3.org/2000/svg" xmlns:xlink="http://www.w3.org/1999/xlink" x="0px" y="0px"
	 viewBox="0 0 512 512" style="enable-background:new 0 0 512 512;" xml:space="preserve">
<g>
	<g>
		<path d="M156.6,351.6c8.6,12.3,19.4,24,32.4,35c13,11,26.2,20.6,39.6,28.6c13.3,8,28.6,15.9,45.7,23.7l-0.3-0.3l1.1,0.3
			c-12.8-24.4-19.1-45.7-19.1-64c0-9.7,2.3-18.9,7-27.6c4.7-8.7,10.8-16.4,18.3-23.3c7.5-6.9,15.9-13.7,25-20.6
			c9.1-6.9,18.3-14.2,27.4-22.1c9.1-7.9,17.5-16.3,25-25.1c7.5-8.9,13.6-19.6,18.3-32.1c4.7-12.6,7-26.3,7-41.1
			c0-18.7-2.6-36.2-7.9-52.6c-5.2-16.4-12.1-30.7-20.7-43c-8.6-12.3-19.4-24-32.4-35c-13-11-26.2-20.6-39.6-28.6
			c-13.3-8-28.6-15.9-45.7-23.7l0.3,0.3L237.1,0C249.7,24.8,256,46.1,256,64c0,9.7-2.3,18.9-7,27.6c-4.7,8.7-10.8,16.4-18.3,23.3
			c-7.5,6.9-15.9,13.7-25,20.6c-9.1,6.9-18.3,14.2-27.4,22.1c-9.1,7.9-17.5,16.3-25,25.1c-7.5,8.9-13.6,19.6-18.3,32.1
			c-4.7,12.6-7,26.3-7,41.1c0,18.7,2.6,36.2,7.9,52.6C141.1,324.9,148,339.3,156.6,351.6z"/>
		<path d="M454.4,478.1c-1.8-1.8-4-2.7-6.4-2.7H64c-2.5,0-4.6,0.9-6.4,2.7c-1.8,1.8-2.7,4-2.7,6.4v18.3c0,2.5,0.9,4.6,2.7,6.4
			c1.8,1.8,4,2.7,6.4,2.7h384c2.5,0,4.6-0.9,6.4-2.7c1.8-1.8,2.7-4,2.7-6.4v-18.3C457.1,482.1,456.2,480,454.4,478.1z"/>
	</g>
</g>
</svg>
